#!OML:ASF F:\VICON\USERDATA\INSTALL\rory3\rory3.ASF
:FULLY-SPECIFIED
:DEGREES
85
root -0.14935216942531993 17.9526902592359 30.89631919516536 -3.719072032929163 0.7820688683284496 -4.6872645036843545
lfemur -10.872905739134138 -1.0851356452837193 -13.657109343470566
ltibia 61.52048024549072
lfoot 6.562816992507602 -12.90129089545593
ltoes -6.759940660974042
rfemur -14.431796325188774 7.497751974172742 31.401999198124024
rtibia 29.816591142345956
rfoot -10.248818302100286 -6.457327837032028
rtoes 8.392721139038986
lowerback 10.283872842044534 -0.22581833631338893 1.8928486469464876
upperback 0.8794894922489213 0.0005214943589141319 2.5823169442193903
thorax -4.9611475273804455 -0.030836126516749385 1.4073962528848911
lowerneck -15.30913436792639 -2.6305047474362886 -2.2508527197140618
upperneck 21.993807343019604 -3.1981911439751096 0.5675581978912995
head 9.468816877501446 -1.597913527062131 0.11421383711818905
lclavicle -1.3866171313360243e-15 -1.842947141587449e-15
lhumerus -33.14889557598678 3.314984856644989 81.0396971711806
lradius 28.696418241553783
lwrist 3.1032660662617935
lhand -26.013705959261877 24.37869905413199
lfingers 7.125019999999999
lthumb 0.39592947638247633 54.46776783445617
rclavicle -1.383417285288572e-15 -1.8385509702698438e-15
rhumerus -33.81771474324982 -28.893414506140665 -69.94145033772853
rradius 18.34492107201958
rwrist 15.823052983773913
rhand -17.178919777974947 23.0818189029854
rfingers 7.125019999999999
rthumb 8.990825006426068 -6.769794766282256
86
root -0.15710695397516838 17.973816589196456 31.143357667814726 -3.8028167110906383 0.7409865619813714 -5.140917689810042
lfemur -14.7857262784252 -0.5321085581691638 -13.107147697883237
ltibia 62.264417809199315
lfoot -0.07873224465828432 -10.152198392800361
ltoes -6.866532024643203
rfemur -11.79756887031682 7.606457484917275 32.18924474500477
rtibia 29.510952599454782
rfoot -11.255826552364992 -6.694912001176295
rtoes 7.689352188749379
lowerback 10.335575861911426 -0.048142560224435416 2.3933316448722186
upperback 0.799603324289983 0.3084026861571333 2.4899415720678606
thorax -4.953450951627694 0.11376656118191289 0.9184239731400222
lowerneck -15.15113170504621 -2.7393572396088417 -2.3117822902966383
upperneck 21.866181424101107 -3.4200699364794094 0.7721748908269201
head 9.380549383469068 -1.67869257659768 0.17747367322969515
lclavicle -1.3876383523037106e-15 -1.8438958467357084e-15
lhumerus -33.72145797324582 4.196659743029673 80.83175099745363
lradius 27.19346372532747
lwrist 2.7242256456040437
lhand -26.610500031589236 23.72068222941017
lfingers 7.125019999999999
lthumb -0.25398607075271007 53.69603421674319
rclavicle -1.384924457965587e-15 -1.840006522692721e-15
rhumerus -32.233406356053536 -26.440953400627954 -72.21331064080138
rradius 19.077669312327647
rwrist 13.175118783733499
rhand -17.187646345178866 22.243765498493133
rfingers 7.125019999999999
rthumb 9.031028272037574 -7.576495662039297
87
root -0.14864517016292367 17.96929944624754 31.18610218100511 -3.629456506999743 0.3171322809644066 -5.6763417326262235
lfemur -18.377564404889917 -0.05639255385544173 -12.640508748848518
ltibia 60.15299163490339
lfoot -4.822204852967465 -8.15229667363561
ltoes -7.213586843522577
rfemur -9.383016202678583 7.929306570083675 33.29833235736592
rtibia 29.193454263922913
rfoot -11.772597214840491 -6.951022123410307
rtoes 7.340179396590493
lowerback 10.534288626496515 0.2810825138633329 2.9085742832643366
upperback 0.6933897476618448 0.8521405777128106 2.3954684177391536
thorax -5.095024631892755 0.36216551817690185 0.3520098553814045
lowerneck -15.055113957228649 -2.7897443263821793 -2.250189718349533
upperneck 21.70894846672147 -3.5114807786672433 0.7338652447277716
head 9.321584488509805 -1.7079915797100944 0.1594020200022503
lclavicle -1.3880393341786732e-15 -1.8442678321515612e-15
lhumerus -34.445458695848764 4.672725984159383 80.80714921646691
lradius 26.156499120922085
lwrist 3.6386543844375554
lhand -27.238221514331194 23.301787088117184
lfingers 7.125019999999999
lthumb -0.49812567188184653 53.90780063241725
rclavicle -1.385352862041148e-15 -1.840383020915025e-15
rhumerus -30.88421746192246 -23.792267041104886 -74.20809233808806
rradius 20.6558592549616
rwrist 8.39180470141972
rhand -17.31310109242956 20.988535785542005
rfingers 7.125019999999999
rthumb 8.860287753644368 -8.7527537769033
88
root -0.12396964808548638 17.936339701342565 31.49681092106475 -3.378854285374107 -0.07264143542441137 -5.819985170111532
lfemur -21.25727467403973 0.02096039786010051 -12.743220696824894
ltibia 55.92039251936049
lfoot -8.582132896333993 -5.978392767386509
ltoes -8.74022944893307
rfemur -7.410817186544516 7.904860585922636 33.578476049396464
rtibia 29.504458042963464
rfoot -12.541715885800592 -6.994227605713834
rtoes 8.468341937805615
lowerback 10.45234834601939 0.5685241335958496 3.1586166390913752
upperback 0.7452919447944641 1.2342155315855705 2.183283133126636
thorax -5.0111117099649505 0.5439948810788462 -0.1270223405422406
lowerneck -15.208702982006137 -2.812368265701626 -2.1826106464392847
upperneck 21.625720200841947 -3.542812380748346 0.6887771872650773
head 9.343435940048986 -1.71482399123588 0.13046343354153156
lclavicle -1.3867753816950742e-15 -1.8430928648711128e-15
lhumerus -34.67678779442447 5.448946157269121 80.64156519190489
lradius 25.0242188698247
lwrist 3.647662369639045
lhand -26.669651828313345 23.848325908016065
lfingers 7.125019999999999
lthumb -0.24647748842797546 54.249946692950196
rclavicle -1.3871386590250347e-15 -1.8423138847645915e-15
rhumerus -29.431711897097127 -21.208740301284326 -76.08439442256875
rradius 22.605622259275346
rwrist 7.013886062021061
rhand -17.606796931086123 20.183265838794
rfingers 7.125019999999999
rthumb 8.55644427908113 -9.356209704832638
